<?xml version="1.0" encoding="UTF-8" standalone="no"?>
<!DOCTYPE svg PUBLIC "-//W3C//DTD SVG 1.1//EN"
 "http://www.w3.org/Graphics/SVG/1.1/DTD/svg11.dtd">
<!-- Generated by graphviz version 2.40.1 (20161225.0304)
 -->
<!-- Title: test1 Pages: 1 -->
<svg width="237pt" height="116pt"
 viewBox="0.00 0.00 237.00 116.00" xmlns="http://www.w3.org/2000/svg" xmlns:xlink="http://www.w3.org/1999/xlink">
<g id="graph0" class="graph" transform="scale(1 1) rotate(0) translate(4 112)">
<title>test1</title>
<polygon fill="#ffffff" stroke="transparent" points="-4,4 -4,-112 233,-112 233,4 -4,4"/>
<!-- A -->
<g id="node1" class="node">
<title>A</title>
<polygon fill="none" stroke="#000000" points="58,-108 31,-90 58,-72 85,-90 58,-108"/>
<text text-anchor="middle" x="58" y="-85.8" font-family="Times,serif" font-size="14.00" fill="#000000">A</text>
</g>
<!-- B -->
<g id="node2" class="node">
<title>B</title>
<polygon fill="none" stroke="#000000" points="54,-36 0,-36 0,0 54,0 54,-36"/>
<text text-anchor="middle" x="27" y="-13.8" font-family="Times,serif" font-size="14.00" fill="#000000">B</text>
</g>
<!-- A&#45;&gt;B -->
<g id="edge1" class="edge">
<title>A&#45;&gt;B</title>
<path fill="none" stroke="#c0c0c0" stroke-dasharray="5,2" d="M51.8754,-75.7751C48.158,-67.1413 43.2883,-55.8308 38.8438,-45.5083"/>
<polygon fill="#c0c0c0" stroke="#c0c0c0" points="41.9338,-43.8344 34.7645,-36.0336 35.5044,-46.6026 41.9338,-43.8344"/>
</g>
<!-- C -->
<g id="node3" class="node">
<title>C</title>
<ellipse fill="none" stroke="#000000" cx="90" cy="-18" rx="18" ry="18"/>
<text text-anchor="middle" x="90" y="-13.8" font-family="Times,serif" font-size="14.00" fill="#000000">C</text>
</g>
<!-- A&#45;&gt;C -->
<g id="edge2" class="edge">
<title>A&#45;&gt;C</title>
<path fill="none" stroke="#000000" d="M62.4945,-74.9628C66.5387,-65.8635 71.9042,-53.7911 76.6845,-43.0354"/>
<path fill="none" stroke="transparent" d="M64.3222,-75.7751C68.3663,-66.6757 73.7318,-54.6034 78.5121,-43.8477"/>
<path fill="none" stroke="#000000" d="M66.1498,-76.5874C70.194,-67.488 75.5595,-55.4156 80.3398,-44.66"/>
<polygon fill="#000000" stroke="#000000" points="81.8199,-45.0229 82.683,-34.4632 75.4232,-42.1799 81.8199,-45.0229"/>
</g>
<g id="node4" class="node">
<title></title>
<ellipse fill="none" stroke="#000000" cx="130" cy="-90" rx="27" ry="18"/>
</g>
<!-- D -->
<g id="node5" class="node">
<title>D</title>
<ellipse fill="none" stroke="#000000" stroke-width="5" cx="202" cy="-90" rx="27" ry="18"/>
<text text-anchor="middle" x="202" y="-85.8" font-family="Times,serif" font-size="14.00" fill="#000000">D</text>
</g>
</g>
</svg>
