<?xml version="1.0" encoding="UTF-8" standalone="no"?>
<!DOCTYPE svg PUBLIC "-//W3C//DTD SVG 1.1//EN"
 "http://www.w3.org/Graphics/SVG/1.1/DTD/svg11.dtd">
<!-- Generated by graphviz version 2.40.1 (20161225.0304)
 -->
<!-- Title: ‘est4 Pages: 1 -->
<svg width="332pt" height="206pt"
 viewBox="0.00 0.00 332.00 206.00" xmlns="http://www.w3.org/2000/svg" xmlns:xlink="http://www.w3.org/1999/xlink">
<g id="graph0" class="graph" transform="scale(1 1) rotate(0) translate(4 202)">
<title>‘est4</title>
<polygon fill="#ffffff" stroke="transparent" points="-4,4 -4,-202 328,-202 328,4 -4,4"/>
<!-- c -->
<g id="node1" class="node">
<title>c</title>
<ellipse fill="none" stroke="#000000" cx="27" cy="-18" rx="27" ry="18"/>
<text text-anchor="middle" x="27" y="-13.8" font-family="Times,serif" font-size="14.00" fill="#000000">c</text>
</g>
<!-- U -->
<g id="node3" class="node">
<title>U</title>
<ellipse fill="none" stroke="#000000" cx="117" cy="-64" rx="27" ry="18"/>
<text text-anchor="middle" x="117" y="-59.8" font-family="Times,serif" font-size="14.00" fill="#000000">U</text>
</g>
<!-- c&#45;&#45;U -->
<g id="edge1" class="edge">
<title>c&#45;&#45;U</title>
<path fill="none" stroke="#000000" d="M48.7865,-29.1353C62.9367,-36.3677 81.304,-45.7554 95.4141,-52.9672"/>
</g>
<!-- w -->
<g id="node2" class="node">
<title>w</title>
<ellipse fill="none" stroke="#000000" cx="27" cy="-72" rx="27" ry="18"/>
<text text-anchor="middle" x="27" y="-67.8" font-family="Times,serif" font-size="14.00" fill="#000000">w</text>
</g>
<!-- w&#45;&#45;U -->
<g id="edge2" class="edge">
<title>w&#45;&#45;U</title>
<path fill="none" stroke="#000000" d="M54.003,-69.5997C65.394,-68.5872 78.6271,-67.4109 90.0161,-66.3986"/>
</g>
<!-- e -->
<g id="node4" class="node">
<title>e</title>
<ellipse fill="none" stroke="#000000" cx="207" cy="-64" rx="27" ry="18"/>
<text text-anchor="middle" x="207" y="-59.8" font-family="Times,serif" font-size="14.00" fill="#000000">e</text>
</g>
<!-- U&#45;&#45;e -->
<g id="edge3" class="edge">
<title>U&#45;&#45;e:w</title>
<path fill="none" stroke="#000000" d="M144.2887,-64C155.3709,-64 168.2969,-64 180,-64"/>
</g>
<!-- b -->
<g id="node5" class="node">
<title>b</title>
<ellipse fill="none" stroke="#000000" cx="297" cy="-41" rx="27" ry="18"/>
<text text-anchor="middle" x="297" y="-36.8" font-family="Times,serif" font-size="14.00" fill="#000000">b</text>
</g>
<!-- e&#45;&#45;b -->
<g id="edge4" class="edge">
<title>e:w&#45;&#45;b</title>
<path fill="none" stroke="#000000" d="M180,-64C180,-64 234,-82 234,-82 251.5148,-76.8026 268.7143,-65.0279 280.7052,-55.4242"/>
</g>
<!-- b&#45;&#45;c -->
<g id="edge5" class="edge">
<title>b&#45;&#45;c:ñ</title>
<path fill="none" stroke="#000000" d="M269.8322,-38.6857C217.9835,-34.269 105.4959,-24.6867 53.8757,-20.2894"/>
</g>
<!-- a -->
<g id="node6" class="node">
<title>a</title>
<ellipse fill="none" stroke="#000000" cx="27" cy="-126" rx="27" ry="18"/>
<text text-anchor="middle" x="27" y="-121.8" font-family="Times,serif" font-size="14.00" fill="#000000">a</text>
</g>
<!--  -->
<g id="node7" class="node">
<title></title>
<ellipse fill="none" stroke="#000000" cx="27" cy="-180" rx="27" ry="18"/>
<text text-anchor="middle" x="27" y="-175.8" font-family="Times,serif" font-size="14.00" fill="#000000"></text>
</g>
</g>
</svg>
