<?xml version="1.0" encoding="UTF-8" standalone="no"?>
<!DOCTYPE svg PUBLIC "-//W3C//DTD SVG 1.1//EN"
 "http://www.w3.org/Graphics/SVG/1.1/DTD/svg11.dtd">
<!-- Generated by graphviz version 2.40.1 (20161225.0304)
 -->
<!-- Title: te Pages: 1 -->
<svg width="525pt" height="300pt"
 viewBox="0.00 0.00 525.11 299.60" xmlns="http://www.w3.org/2000/svg" xmlns:xlink="http://www.w3.org/1999/xlink">
<g id="graph0" class="graph" transform="scale(1 1) rotate(0) translate(4 295.6)">
<title>te</title>
<polygon fill="#ffffff" stroke="transparent" points="-4,4 -4,-295.6 521.1061,-295.6 521.1061,4 -4,4"/>
<!-- Na -->
<g id="node1" class="node">
<title>Na</title>
<ellipse fill="none" stroke="#000000" cx="27" cy="-252" rx="27" ry="18"/>
<text text-anchor="middle" x="27" y="-247.8" font-family="Times,serif" font-size="14.00" fill="#000000">Na</text>
</g>
<!-- N -->
<g id="node2" class="node">
<title>N</title>
<ellipse fill="none" stroke="#000000" cx="99" cy="-252" rx="27" ry="18"/>
<text text-anchor="middle" x="99" y="-247.8" font-family="Times,serif" font-size="14.00" fill="#000000">N</text>
</g>
<!-- LR -->
<g id="node3" class="node">
<title>LR</title>
<ellipse fill="none" stroke="#000000" cx="171" cy="-252" rx="27" ry="18"/>
<text text-anchor="middle" x="171" y="-247.8" font-family="Times,serif" font-size="14.00" fill="#000000">LR</text>
</g>
<!-- n0 -->
<g id="node4" class="node">
<title>n0</title>
<ellipse fill="none" stroke="#000000" stroke-dasharray="1,5" cx="243" cy="-252" rx="27" ry="18"/>
<text text-anchor="middle" x="243" y="-247.8" font-family="Times,serif" font-size="14.00" fill="#000000">n0</text>
</g>
<!-- n1 -->
<g id="node5" class="node">
<title>n1</title>
<ellipse fill="#ff0000" stroke="#ff0000" cx="324" cy="-252" rx="36" ry="36"/>
<text text-anchor="middle" x="324" y="-247.8" font-family="Times,serif" font-size="14.00" fill="#000000">n1</text>
</g>
<!-- n2 -->
<g id="node6" class="node">
<title>n2</title>
<ellipse fill="none" stroke="#000000" stroke-width="2" cx="405" cy="-252" rx="27" ry="18"/>
<text text-anchor="middle" x="405" y="-249.3" font-family="Times,serif" font-size="9.00" fill="#0000ff">n2</text>
<text text-anchor="start" x="366.5097" y="-283.5" font-family="Times,serif" font-size="9.00" fill="#0000ff">sec</text>
<text text-anchor="middle" x="372.2549" y="-272.7" font-family="Times,serif" font-size="9.00" fill="#0000ff">te</text>
</g>
<!-- n11 -->
<g id="node7" class="node">
<title>n11</title>
<ellipse fill="none" stroke="#000000" cx="477" cy="-252" rx="27" ry="18"/>
<text text-anchor="middle" x="477" y="-247.8" font-family="Times,serif" font-size="14.00" fill="#000000">n11</text>
</g>
<!-- n22 -->
<g id="node8" class="node">
<title>n22</title>
<ellipse fill="none" stroke="#000000" cx="477" cy="-162" rx="27" ry="18"/>
<text text-anchor="middle" x="477" y="-157.8" font-family="Times,serif" font-size="14.00" fill="#000000">n22</text>
</g>
<!-- n11&#45;&#45;n22 -->
<g id="edge1" class="edge">
<title>n11&#45;&#45;n22</title>
<path fill="none" stroke="#000000" d="M477,-233.7872C477,-218.1726 477,-195.7925 477,-180.1858"/>
</g>
<!-- n33 -->
<g id="node9" class="node">
<title>n33</title>
<ellipse fill="none" stroke="#000000" cx="431" cy="-90" rx="27" ry="18"/>
<text text-anchor="middle" x="431" y="-85.8" font-family="Times,serif" font-size="14.00" fill="#000000">n33</text>
</g>
<!-- n11&#45;&#45;n33 -->
<g id="edge2" class="edge">
<title>n11&#45;&#45;n33</title>
<path fill="none" stroke="#000000" d="M466.4809,-235.2464C458.1254,-221.085 446.8976,-199.9708 441,-180 433.8759,-155.8761 431.7507,-126.7508 431.1586,-108.2993"/>
</g>
<!-- n44 -->
<g id="node10" class="node">
<title>n44</title>
<ellipse fill="none" stroke="#000000" cx="486" cy="-18" rx="27" ry="18"/>
<text text-anchor="middle" x="486" y="-13.8" font-family="Times,serif" font-size="14.00" fill="#000000">n44</text>
</g>
<!-- n11&#45;&#45;n44 -->
<g id="edge3" class="edge">
<title>n11&#45;&#45;n44</title>
<path fill="none" stroke="#000000" d="M488.1027,-235.4013C496.8053,-221.3321 508.2158,-200.2663 513,-180 525.2502,-128.1071 505.1969,-65.5858 493.4969,-35.6528"/>
</g>
<!-- n22&#45;&#45;n33 -->
<g id="edge4" class="edge">
<title>n22&#45;&#45;n33</title>
<path fill="none" stroke="#000000" d="M466.3311,-145.3008C458.8996,-133.669 449.0298,-118.2206 441.6111,-106.6087"/>
</g>
<!-- n22&#45;&#45;n44 -->
<g id="edge5" class="edge">
<title>n22&#45;&#45;n44</title>
<path fill="none" stroke="#000000" d="M478.1399,-143.7623C479.871,-116.0633 483.1437,-63.7005 484.8694,-36.0896"/>
</g>
<!-- n33&#45;&#45;n44 -->
<g id="edge6" class="edge">
<title>n33&#45;&#45;n44</title>
<path fill="none" stroke="#000000" d="M443.4804,-73.6621C452.4814,-61.8788 464.5793,-46.0416 473.569,-34.2733"/>
</g>
</g>
</svg>
