<?xml version="1.0" encoding="UTF-8" standalone="no"?>
<!DOCTYPE svg PUBLIC "-//W3C//DTD SVG 1.1//EN"
 "http://www.w3.org/Graphics/SVG/1.1/DTD/svg11.dtd">
<!-- Generated by graphviz version 2.40.1 (20161225.0304)
 -->
<!-- Title: test1 Pages: 1 -->
<svg width="228pt" height="116pt"
 viewBox="0.00 0.00 228.00 116.00" xmlns="http://www.w3.org/2000/svg" xmlns:xlink="http://www.w3.org/1999/xlink">
<g id="graph0" class="graph" transform="scale(1 1) rotate(0) translate(4 112)">
<title>test1</title>
<polygon fill="#ffffff" stroke="transparent" points="-4,4 -4,-112 224,-112 224,4 -4,4"/>
<!-- A -->
<g id="node1" class="node">
<title>A</title>
<polygon fill="none" stroke="#000000" points="49,-108 22,-90 49,-72 76,-90 49,-108"/>
<text text-anchor="middle" x="49" y="-85.8" font-family="Times,serif" font-size="14.00" fill="#000000">A</text>
</g>
<!-- C -->
<g id="node3" class="node">
<title>C</title>
<ellipse fill="none" stroke="#000000" cx="18" cy="-18" rx="18" ry="18"/>
<text text-anchor="middle" x="18" y="-13.8" font-family="Times,serif" font-size="14.00" fill="#000000">C</text>
</g>
<!-- A&#45;&gt;C -->
<g id="edge1" class="edge">
<title>A&#45;&gt;C</title>
<path fill="none" stroke="#000000" d="M42.8754,-75.7751C38.9846,-66.7385 33.8314,-54.7697 29.2248,-44.0704"/>
<polygon fill="#000000" stroke="#000000" points="32.369,-42.5226 25.1997,-34.7219 25.9396,-45.2909 32.369,-42.5226"/>
</g>
<!-- D -->
<g id="node5" class="node">
<title>D</title>
<ellipse fill="none" stroke="#000000" cx="81" cy="-18" rx="27" ry="18"/>
<text text-anchor="middle" x="81" y="-13.8" font-family="Times,serif" font-size="14.00" fill="#000000">D</text>
</g>
<!-- A&#45;&gt;D -->
<g id="edge2" class="edge">
<title>A&#45;&gt;D</title>
<path fill="none" stroke="#000000" stroke-width="5" d="M55.3222,-75.7751C60.4586,-64.2181 67.7266,-47.8652 73.2199,-35.5053"/>
</g>
<!-- B -->
<g id="node2" class="node">
<title>B</title>
<polygon fill="none" stroke="#000000" stroke-dasharray="5,2" points="148,-108 94,-108 94,-72 148,-72 148,-108"/>
<text text-anchor="middle" x="121" y="-85.8" font-family="Times,serif" font-size="14.00" fill="#000000">B</text>
</g>
<!-- &#45;4 -->
<g id="node4" class="node">
<title>&#45;4</title>
<ellipse fill="none" stroke="#000000" cx="193" cy="-90" rx="27" ry="18"/>
<text text-anchor="middle" x="193" y="-85.8" font-family="Times,serif" font-size="14.00" fill="#000000">&#45;4</text>
</g>
</g>
</svg>
