<?xml version="1.0" encoding="UTF-8" standalone="no"?>
<!DOCTYPE svg PUBLIC "-//W3C//DTD SVG 1.1//EN"
 "http://www.w3.org/Graphics/SVG/1.1/DTD/svg11.dtd">
<!-- Generated by graphviz version 2.40.1 (20161225.0304)
 -->
<!-- Title: a2 Pages: 1 -->
<svg width="316pt" height="239pt"
 viewBox="0.00 0.00 316.00 238.60" xmlns="http://www.w3.org/2000/svg" xmlns:xlink="http://www.w3.org/1999/xlink">
<g id="page0,1_graph0" class="graph" transform="scale(1 1) rotate(0) translate(4 234.6)">
<title>a2</title>
<polygon fill="#ffffff" stroke="transparent" points="-4,4 -4,-234.6 312,-234.6 312,4 -4,4"/>
<!-- ˜ -->
<g id="node1" class="node">
<title>˜</title>
<ellipse fill="none" stroke="#000000" cx="27" cy="-212.6" rx="27" ry="18"/>
<text text-anchor="middle" x="27" y="-208.4" font-family="Times,serif" font-size="14.00" fill="#000000">˜</text>
</g>
<!-- n1 -->
<g id="node2" class="node">
<title>n1</title>
<ellipse fill="none" stroke="#000000" cx="99" cy="-212.6" rx="27" ry="18"/>
<text text-anchor="middle" x="99" y="-208.4" font-family="Times,serif" font-size="14.00" fill="#000000">n1</text>
</g>
<!-- n2 -->
<g id="node3" class="node">
<title>n2</title>
<ellipse fill="none" stroke="#000000" cx="99" cy="-91" rx="27" ry="18"/>
<text text-anchor="middle" x="99" y="-86.8" font-family="Times,serif" font-size="14.00" fill="#000000">n2</text>
</g>
<!-- n1&#45;&#45;n2 -->
<g id="edge1" class="edge">
<title>n1&#45;&#45;n2</title>
<path fill="none" stroke="#000000" d="M99,-194.3953C99,-171.4712 99,-132.3118 99,-109.3292"/>
<text text-anchor="middle" x="105.6073" y="-164" font-family="comic sans" font-size="14.00" fill="#000000">d</text>
<text text-anchor="middle" x="105.6073" y="-131.2" font-family="comic sans" font-size="14.00" fill="#000000">a2</text>
</g>
<!-- n11 -->
<g id="node4" class="node">
<title>n11</title>
<ellipse fill="none" stroke="#000000" cx="226" cy="-212.6" rx="27" ry="18"/>
<text text-anchor="middle" x="226" y="-208.4" font-family="Times,serif" font-size="14.00" fill="#000000">n11</text>
</g>
<!-- n22 -->
<g id="node5" class="node">
<title>n22</title>
<ellipse fill="none" stroke="#000000" cx="171" cy="-91" rx="27" ry="18"/>
<text text-anchor="middle" x="171" y="-86.8" font-family="Times,serif" font-size="14.00" fill="#000000">n22</text>
</g>
<!-- n11&#45;&#45;n22 -->
<g id="edge2" class="edge">
<title>n11&#45;&#45;n22</title>
<path fill="none" stroke="#000000" d="M218.1198,-195.1777C207.6643,-172.0615 189.3137,-131.4899 178.8655,-108.39"/>
</g>
<!-- n33 -->
<g id="node6" class="node">
<title>n33</title>
<ellipse fill="none" stroke="#000000" cx="206" cy="-18" rx="27" ry="18"/>
<text text-anchor="middle" x="206" y="-13.8" font-family="Times,serif" font-size="14.00" fill="#000000">n33</text>
</g>
<!-- n11&#45;&#45;n33 -->
<g id="edge3" class="edge">
<title>n11&#45;&#45;n33</title>
<path fill="none" stroke="#000000" d="M224.1543,-194.6413C220.3539,-157.6633 211.6916,-73.3795 207.8703,-36.1982"/>
</g>
<!-- n44 -->
<g id="node7" class="node">
<title>n44</title>
<ellipse fill="none" stroke="#000000" cx="281" cy="-91" rx="27" ry="18"/>
<text text-anchor="middle" x="281" y="-86.8" font-family="Times,serif" font-size="14.00" fill="#000000">n44</text>
</g>
<!-- n11&#45;&#45;n44 -->
<g id="edge4" class="edge">
<title>n11&#45;&#45;n44</title>
<path fill="none" stroke="#000000" d="M233.8802,-195.1777C244.3357,-172.0615 262.6863,-131.4899 273.1345,-108.39"/>
</g>
<!-- n22&#45;&#45;n33 -->
<g id="edge5" class="edge">
<title>n22&#45;&#45;n33</title>
<path fill="none" stroke="#000000" d="M179.2945,-73.7C184.8738,-62.0632 192.1982,-46.7866 197.765,-35.1758"/>
</g>
</g>
</svg>
